<svg height="341pt" viewBox="0 -66 341.62 341" width="341pt" xmlns="http://www.w3.org/2000/svg"><g fill="#ffffff"><path d="m331.621094 188.308594h-321.621094c-5.523438 0-10 4.480468-10 10 0 5.523437 4.476562 10 10 10h321.621094c5.523437 0 10-4.476563 10-10 0-5.519532-4.476563-10-10-10zm0 0"/><path d="m331.621094 94.308594h-321.621094c-5.523438 0-10 4.480468-10 10 0 5.523437 4.476562 10 10 10h321.621094c5.523437 0 10-4.476563 10-10 0-5.519532-4.476563-10-10-10zm0 0"/><path d="m331.621094.308594h-321.621094c-5.523438 0-10 4.480468-10 10 0 5.523437 4.476562 10 10 10h321.621094c5.523437 0 10-4.476563 10-10 0-5.519532-4.476563-10-10-10zm0 0"/></g></svg>