<svg width="48" height="48" viewBox="0 0 48 48" fill="none" xmlns="http://www.w3.org/2000/svg">
<rect width="48" height="48" rx="10" fill="white"/>
<path d="M42.8749 29.5447C43.59 29.5447 44.1696 28.9651 44.1696 28.25C44.1696 27.535 43.59 26.9553 42.8749 26.9553C42.1599 26.9553 41.5802 27.535 41.5802 28.25C41.5802 28.9651 42.1599 29.5447 42.8749 29.5447Z" fill="#4D4D4D"/>
<path d="M41.5735 34.305C40.3445 38.506 26.8848 38.2658 26.7305 37.3938C26.6445 36.9035 30.8918 36.9708 34.8206 33.4657C37.0008 31.5219 37.6587 29.7477 38.9886 29.888C40.4892 30.0478 42.083 32.5617 41.5735 34.305Z" fill="#4D4D4D"/>
<path fill-rule="evenodd" clip-rule="evenodd" d="M6.71916 23.0712H18.2061C19.5024 23.0712 20.5545 22.0218 20.5545 20.7254V10.7169C20.5545 9.85367 19.8531 9.15308 18.9889 9.15308H4.37073V20.7254C4.37073 22.0203 5.42282 23.0712 6.71916 23.0712ZM7.10385 21.4528H17.8215C18.4368 21.4528 18.9362 20.9597 18.9362 20.3523V11.1814C18.9362 10.7765 18.6033 10.4478 18.193 10.4478H6.73228C6.32206 10.4478 5.98914 10.7765 5.98914 11.1814V20.3523C5.98914 20.9597 6.48853 21.4528 7.10385 21.4528Z" fill="#4D4D4D"/>
<path d="M5.82382 11.4188H3.5649C3.47402 11.4188 3.39966 11.346 3.39966 11.257V9.31491C3.39966 9.2259 3.47402 9.15308 3.5649 9.15308H5.82382C5.91471 9.15308 5.98907 9.2259 5.98907 9.31491V11.257C5.98907 11.346 5.91471 11.4188 5.82382 11.4188Z" fill="#4D4D4D"/>
<path fill-rule="evenodd" clip-rule="evenodd" d="M41.1871 23.0712H29.7001C28.4038 23.0712 27.3517 22.0218 27.3517 20.7254V10.7169C27.3517 9.85367 28.0531 9.15308 28.9173 9.15308H43.5355V20.7254C43.5355 22.0203 42.4834 23.0712 41.1871 23.0712ZM40.8024 21.4528H30.0848C29.4695 21.4528 28.9701 20.9597 28.9701 20.3523V11.1814C28.9701 10.7765 29.303 10.4478 29.7132 10.4478H41.174C41.5842 10.4478 41.9171 10.7765 41.9171 11.1814V20.3523C41.9171 20.9597 41.4177 21.4528 40.8024 21.4528Z" fill="#4D4D4D"/>
<path d="M42.3854 11.4188H44.362C44.4415 11.4188 44.5066 11.346 44.5066 11.257V9.31491C44.5066 9.2259 44.4415 9.15308 44.362 9.15308H42.3854C42.3059 9.15308 42.2408 9.2259 42.2408 9.31491V11.257C42.2408 11.346 42.3059 11.4188 42.3854 11.4188Z" fill="#4D4D4D"/>
<path d="M27.3516 13.0371H20.5544V14.3318H27.3516V13.0371Z" fill="#4D4D4D"/>
</svg>
